<?xml version="1.0" encoding="us-ascii" standalone="no"?><svg xmlns="http://www.w3.org/2000/svg" xmlns:xlink="http://www.w3.org/1999/xlink" contentStyleType="text/css" height="1039px" preserveAspectRatio="none" style="width:730px;height:1039px;background:#444444;" version="1.1" viewBox="0 0 730 1039" width="730px" zoomAndPan="magnify"><defs/><g><rect fill="#444444" height="1039" style="stroke:none;stroke-width:1.0;" width="730" x="0" y="0"/><text fill="#FFB000" font-family="Verdana" font-size="22" font-weight="bold" lengthAdjust="spacing" textLength="498" x="111.5" y="37.1182">Governator Entity Relationship Diagram</text><!--cluster Members--><g id="cluster_Members"><rect fill="#000000" height="284.06" rx="2.5" ry="2.5" style="stroke:#FFB000;stroke-width:1.0;" width="228" x="12" y="197.7573"/><text fill="#FFB000" font-family="Verdana" font-size="14" font-weight="bold" lengthAdjust="spacing" textLength="71" x="90.5" y="213.8325">Members</text></g><!--cluster Core--><g id="cluster_Core"><rect fill="#000000" height="268.05" rx="2.5" ry="2.5" style="stroke:#FFB000;stroke-width:1.0;" width="228" x="415" y="59.7373"/><text fill="#FFB000" font-family="Verdana" font-size="14" font-weight="bold" lengthAdjust="spacing" textLength="36" x="511" y="75.8125">Core</text></g><!--cluster Objects--><g id="cluster_Objects"><rect fill="#000000" height="682.15" rx="2.5" ry="2.5" style="stroke:#FFB000;stroke-width:1.0;" width="460" x="264" y="351.7873"/><text fill="#FFB000" font-family="Verdana" font-size="14" font-weight="bold" lengthAdjust="spacing" textLength="59" x="464.5" y="367.8625">Objects</text></g><!--class user--><g id="elem_user"><rect codeLine="24" fill="#282828" height="78.0293" id="user" rx="2.5" ry="2.5" style="stroke:#808080;stroke-width:1.0;" width="197" x="27.5" y="387.7873"/><ellipse cx="106.75" cy="401.7873" fill="#282828" rx="9" ry="9" style="stroke:#FFB000;stroke-width:1.0;"/><path d="M110.3643,408.2873 L102.6445,408.2873 L102.6445,395.8942 L110.3643,395.8942 L110.3643,398.0524 L105.0933,398.0524 L105.0933,400.7253 L109.8662,400.7253 L109.8662,402.8835 L105.0933,402.8835 L105.0933,406.1291 L110.3643,406.1291 Z " fill="#FFB000"/><text fill="#FFB000" font-family="Verdana" font-size="14" lengthAdjust="spacing" textLength="31" x="124.25" y="407.3552">User</text><line style="stroke:#808080;stroke-width:1.0;" x1="28.5" x2="223.5" y1="415.7873" y2="415.7873"/><ellipse cx="38.5" cy="429.7946" fill="#282828" rx="3" ry="3" style="stroke:#FFB000;stroke-width:1.0;"/><text fill="#FFB000" font-family="Verdana" font-size="14" lengthAdjust="spacing" textLength="173" x="45.5" y="433.8625">id: number &#171;generated&#187;</text><line style="stroke:#808080;stroke-width:1.0;" x1="28.5" x2="223.5" y1="440.802" y2="440.802"/><text fill="#FFB000" font-family="Verdana" font-size="14" lengthAdjust="spacing" textLength="127" x="33.5" y="458.8771">uuid: BINARY(16)</text></g><!--class group--><g id="elem_group"><rect codeLine="29" fill="#282828" height="78.0293" id="group" rx="2.5" ry="2.5" style="stroke:#808080;stroke-width:1.0;" width="197" x="27.5" y="233.7573"/><ellipse cx="100.75" cy="247.7573" fill="#282828" rx="9" ry="9" style="stroke:#FFB000;stroke-width:1.0;"/><path d="M104.3643,254.2573 L96.6445,254.2573 L96.6445,241.8642 L104.3643,241.8642 L104.3643,244.0224 L99.0933,244.0224 L99.0933,246.6953 L103.8662,246.6953 L103.8662,248.8535 L99.0933,248.8535 L99.0933,252.0991 L104.3643,252.0991 Z " fill="#FFB000"/><text fill="#FFB000" font-family="Verdana" font-size="14" lengthAdjust="spacing" textLength="43" x="118.25" y="253.3252">Group</text><line style="stroke:#808080;stroke-width:1.0;" x1="28.5" x2="223.5" y1="261.7573" y2="261.7573"/><ellipse cx="38.5" cy="275.7646" fill="#282828" rx="3" ry="3" style="stroke:#FFB000;stroke-width:1.0;"/><text fill="#FFB000" font-family="Verdana" font-size="14" lengthAdjust="spacing" textLength="173" x="45.5" y="279.8325">id: number &#171;generated&#187;</text><line style="stroke:#808080;stroke-width:1.0;" x1="28.5" x2="223.5" y1="286.772" y2="286.772"/><text fill="#FFB000" font-family="Verdana" font-size="14" lengthAdjust="spacing" textLength="127" x="33.5" y="304.8471">uuid: BINARY(16)</text></g><!--class role--><g id="elem_role"><rect codeLine="37" fill="#282828" height="78.0293" id="role" rx="2.5" ry="2.5" style="stroke:#808080;stroke-width:1.0;" width="197" x="430.5" y="95.7373"/><ellipse cx="510.25" cy="109.7373" fill="#282828" rx="9" ry="9" style="stroke:#FFB000;stroke-width:1.0;"/><path d="M513.8643,116.2373 L506.1445,116.2373 L506.1445,103.8442 L513.8643,103.8442 L513.8643,106.0024 L508.5933,106.0024 L508.5933,108.6753 L513.3662,108.6753 L513.3662,110.8335 L508.5933,110.8335 L508.5933,114.0791 L513.8643,114.0791 Z " fill="#FFB000"/><text fill="#FFB000" font-family="Verdana" font-size="14" lengthAdjust="spacing" textLength="30" x="527.75" y="115.3052">Role</text><line style="stroke:#808080;stroke-width:1.0;" x1="431.5" x2="626.5" y1="123.7373" y2="123.7373"/><ellipse cx="441.5" cy="137.7446" fill="#282828" rx="3" ry="3" style="stroke:#FFB000;stroke-width:1.0;"/><text fill="#FFB000" font-family="Verdana" font-size="14" lengthAdjust="spacing" textLength="173" x="448.5" y="141.8125">id: number &#171;generated&#187;</text><line style="stroke:#808080;stroke-width:1.0;" x1="431.5" x2="626.5" y1="148.752" y2="148.752"/><text fill="#FFB000" font-family="Verdana" font-size="14" lengthAdjust="spacing" textLength="127" x="436.5" y="166.8271">uuid: BINARY(16)</text></g><!--class perm--><g id="elem_perm"><rect codeLine="42" fill="#282828" height="78.0293" id="perm" rx="2.5" ry="2.5" style="stroke:#808080;stroke-width:1.0;" width="197" x="430.5" y="233.7573"/><ellipse cx="487.75" cy="247.7573" fill="#282828" rx="9" ry="9" style="stroke:#FFB000;stroke-width:1.0;"/><path d="M491.3643,254.2573 L483.6445,254.2573 L483.6445,241.8642 L491.3643,241.8642 L491.3643,244.0224 L486.0933,244.0224 L486.0933,246.6953 L490.8662,246.6953 L490.8662,248.8535 L486.0933,248.8535 L486.0933,252.0991 L491.3643,252.0991 Z " fill="#FFB000"/><text fill="#FFB000" font-family="Verdana" font-size="14" lengthAdjust="spacing" textLength="75" x="505.25" y="253.3252">Permission</text><line style="stroke:#808080;stroke-width:1.0;" x1="431.5" x2="626.5" y1="261.7573" y2="261.7573"/><ellipse cx="441.5" cy="275.7646" fill="#282828" rx="3" ry="3" style="stroke:#FFB000;stroke-width:1.0;"/><text fill="#FFB000" font-family="Verdana" font-size="14" lengthAdjust="spacing" textLength="173" x="448.5" y="279.8325">id: number &#171;generated&#187;</text><line style="stroke:#808080;stroke-width:1.0;" x1="431.5" x2="626.5" y1="286.772" y2="286.772"/><text fill="#FFB000" font-family="Verdana" font-size="14" lengthAdjust="spacing" textLength="127" x="436.5" y="304.8471">uuid: BINARY(16)</text></g><!--class database--><g id="elem_database"><rect codeLine="54" fill="#282828" height="78.0293" id="database" rx="2.5" ry="2.5" style="stroke:#808080;stroke-width:1.0;" width="197" x="279.5" y="387.7873"/><ellipse cx="341.75" cy="401.7873" fill="#282828" rx="9" ry="9" style="stroke:#FFB000;stroke-width:1.0;"/><path d="M345.3643,408.2873 L337.6445,408.2873 L337.6445,395.8942 L345.3643,395.8942 L345.3643,398.0524 L340.0933,398.0524 L340.0933,400.7253 L344.8662,400.7253 L344.8662,402.8835 L340.0933,402.8835 L340.0933,406.1291 L345.3643,406.1291 Z " fill="#FFB000"/><text fill="#FFB000" font-family="Verdana" font-size="14" lengthAdjust="spacing" textLength="65" x="359.25" y="407.3552">Database</text><line style="stroke:#808080;stroke-width:1.0;" x1="280.5" x2="475.5" y1="415.7873" y2="415.7873"/><ellipse cx="290.5" cy="429.7946" fill="#282828" rx="3" ry="3" style="stroke:#FFB000;stroke-width:1.0;"/><text fill="#FFB000" font-family="Verdana" font-size="14" lengthAdjust="spacing" textLength="173" x="297.5" y="433.8625">id: number &#171;generated&#187;</text><line style="stroke:#808080;stroke-width:1.0;" x1="280.5" x2="475.5" y1="440.802" y2="440.802"/><text fill="#FFB000" font-family="Verdana" font-size="14" lengthAdjust="spacing" textLength="127" x="285.5" y="458.8771">uuid: BINARY(16)</text></g><!--class catalog--><g id="elem_catalog"><rect codeLine="59" fill="#282828" height="78.0293" id="catalog" rx="2.5" ry="2.5" style="stroke:#808080;stroke-width:1.0;" width="197" x="350.5" y="525.8173"/><ellipse cx="418.75" cy="539.8173" fill="#282828" rx="9" ry="9" style="stroke:#FFB000;stroke-width:1.0;"/><path d="M422.3643,546.3173 L414.6445,546.3173 L414.6445,533.9242 L422.3643,533.9242 L422.3643,536.0824 L417.0933,536.0824 L417.0933,538.7553 L421.8662,538.7553 L421.8662,540.9135 L417.0933,540.9135 L417.0933,544.1591 L422.3643,544.1591 Z " fill="#FFB000"/><text fill="#FFB000" font-family="Verdana" font-size="14" lengthAdjust="spacing" textLength="53" x="436.25" y="545.3852">Catalog</text><line style="stroke:#808080;stroke-width:1.0;" x1="351.5" x2="546.5" y1="553.8173" y2="553.8173"/><ellipse cx="361.5" cy="567.8246" fill="#282828" rx="3" ry="3" style="stroke:#FFB000;stroke-width:1.0;"/><text fill="#FFB000" font-family="Verdana" font-size="14" lengthAdjust="spacing" textLength="173" x="368.5" y="571.8925">id: number &#171;generated&#187;</text><line style="stroke:#808080;stroke-width:1.0;" x1="351.5" x2="546.5" y1="578.832" y2="578.832"/><text fill="#FFB000" font-family="Verdana" font-size="14" lengthAdjust="spacing" textLength="127" x="356.5" y="596.9071">uuid: BINARY(16)</text></g><!--class schema--><g id="elem_schema"><rect codeLine="64" fill="#282828" height="78.0293" id="schema" rx="2.5" ry="2.5" style="stroke:#808080;stroke-width:1.0;" width="197" x="386.5" y="663.8473"/><ellipse cx="453.25" cy="677.8473" fill="#282828" rx="9" ry="9" style="stroke:#FFB000;stroke-width:1.0;"/><path d="M456.8643,684.3473 L449.1445,684.3473 L449.1445,671.9542 L456.8643,671.9542 L456.8643,674.1124 L451.5933,674.1124 L451.5933,676.7853 L456.3662,676.7853 L456.3662,678.9435 L451.5933,678.9435 L451.5933,682.1891 L456.8643,682.1891 Z " fill="#FFB000"/><text fill="#FFB000" font-family="Verdana" font-size="14" lengthAdjust="spacing" textLength="56" x="470.75" y="683.4152">Schema</text><line style="stroke:#808080;stroke-width:1.0;" x1="387.5" x2="582.5" y1="691.8473" y2="691.8473"/><ellipse cx="397.5" cy="705.8546" fill="#282828" rx="3" ry="3" style="stroke:#FFB000;stroke-width:1.0;"/><text fill="#FFB000" font-family="Verdana" font-size="14" lengthAdjust="spacing" textLength="173" x="404.5" y="709.9225">id: number &#171;generated&#187;</text><line style="stroke:#808080;stroke-width:1.0;" x1="387.5" x2="582.5" y1="716.862" y2="716.862"/><text fill="#FFB000" font-family="Verdana" font-size="14" lengthAdjust="spacing" textLength="127" x="392.5" y="734.9371">uuid: BINARY(16)</text></g><!--class relation--><g id="elem_relation"><rect codeLine="69" fill="#282828" height="78.0293" id="relation" rx="2.5" ry="2.5" style="stroke:#808080;stroke-width:1.0;" width="197" x="439.5" y="801.8773"/><ellipse cx="505.75" cy="815.8773" fill="#282828" rx="9" ry="9" style="stroke:#FFB000;stroke-width:1.0;"/><path d="M509.3643,822.3773 L501.6445,822.3773 L501.6445,809.9842 L509.3643,809.9842 L509.3643,812.1424 L504.0933,812.1424 L504.0933,814.8153 L508.8662,814.8153 L508.8662,816.9735 L504.0933,816.9735 L504.0933,820.2191 L509.3643,820.2191 Z " fill="#FFB000"/><text fill="#FFB000" font-family="Verdana" font-size="14" lengthAdjust="spacing" textLength="57" x="523.25" y="821.4452">Relation</text><line style="stroke:#808080;stroke-width:1.0;" x1="440.5" x2="635.5" y1="829.8773" y2="829.8773"/><ellipse cx="450.5" cy="843.8846" fill="#282828" rx="3" ry="3" style="stroke:#FFB000;stroke-width:1.0;"/><text fill="#FFB000" font-family="Verdana" font-size="14" lengthAdjust="spacing" textLength="173" x="457.5" y="847.9525">id: number &#171;generated&#187;</text><line style="stroke:#808080;stroke-width:1.0;" x1="440.5" x2="635.5" y1="854.892" y2="854.892"/><text fill="#FFB000" font-family="Verdana" font-size="14" lengthAdjust="spacing" textLength="127" x="445.5" y="872.9671">uuid: BINARY(16)</text></g><!--class column--><g id="elem_column"><rect codeLine="74" fill="#282828" height="78.0293" id="column" rx="2.5" ry="2.5" style="stroke:#808080;stroke-width:1.0;" width="197" x="279.5" y="939.9073"/><ellipse cx="347.25" cy="953.9073" fill="#282828" rx="9" ry="9" style="stroke:#FFB000;stroke-width:1.0;"/><path d="M350.8643,960.4073 L343.1445,960.4073 L343.1445,948.0142 L350.8643,948.0142 L350.8643,950.1724 L345.5933,950.1724 L345.5933,952.8453 L350.3662,952.8453 L350.3662,955.0035 L345.5933,955.0035 L345.5933,958.2491 L350.8643,958.2491 Z " fill="#FFB000"/><text fill="#FFB000" font-family="Verdana" font-size="14" lengthAdjust="spacing" textLength="54" x="364.75" y="959.4752">Column</text><line style="stroke:#808080;stroke-width:1.0;" x1="280.5" x2="475.5" y1="967.9073" y2="967.9073"/><ellipse cx="290.5" cy="981.9146" fill="#282828" rx="3" ry="3" style="stroke:#FFB000;stroke-width:1.0;"/><text fill="#FFB000" font-family="Verdana" font-size="14" lengthAdjust="spacing" textLength="173" x="297.5" y="985.9825">id: number &#171;generated&#187;</text><line style="stroke:#808080;stroke-width:1.0;" x1="280.5" x2="475.5" y1="992.922" y2="992.922"/><text fill="#FFB000" font-family="Verdana" font-size="14" lengthAdjust="spacing" textLength="127" x="285.5" y="1010.9971">uuid: BINARY(16)</text></g><!--class predicate--><g id="elem_predicate"><rect codeLine="79" fill="#282828" height="78.0293" id="predicate" rx="2.5" ry="2.5" style="stroke:#808080;stroke-width:1.0;" width="197" x="511.5" y="939.9073"/><ellipse cx="574.25" cy="953.9073" fill="#282828" rx="9" ry="9" style="stroke:#FFB000;stroke-width:1.0;"/><path d="M577.8643,960.4073 L570.1445,960.4073 L570.1445,948.0142 L577.8643,948.0142 L577.8643,950.1724 L572.5933,950.1724 L572.5933,952.8453 L577.3662,952.8453 L577.3662,955.0035 L572.5933,955.0035 L572.5933,958.2491 L577.8643,958.2491 Z " fill="#FFB000"/><text fill="#FFB000" font-family="Verdana" font-size="14" lengthAdjust="spacing" textLength="64" x="591.75" y="959.4752">Predicate</text><line style="stroke:#808080;stroke-width:1.0;" x1="512.5" x2="707.5" y1="967.9073" y2="967.9073"/><ellipse cx="522.5" cy="981.9146" fill="#282828" rx="3" ry="3" style="stroke:#FFB000;stroke-width:1.0;"/><text fill="#FFB000" font-family="Verdana" font-size="14" lengthAdjust="spacing" textLength="173" x="529.5" y="985.9825">id: number &#171;generated&#187;</text><line style="stroke:#808080;stroke-width:1.0;" x1="512.5" x2="707.5" y1="992.922" y2="992.922"/><text fill="#FFB000" font-family="Verdana" font-size="14" lengthAdjust="spacing" textLength="127" x="517.5" y="1010.9971">uuid: BINARY(16)</text></g><!--link role to user--><g id="link_role_user"><path codeLine="49" d="M422.17,147.9373 C342.62,147.9373 252,147.9373 252,147.9373 C252,147.9373 252,426.9373 252,426.9373 C252,426.9373 248.75,426.9373 232.97,426.9373 " fill="none" id="role-user" style="stroke:#FFB000;stroke-width:1.0;"/><line style="stroke:#FFB000;stroke-width:1.0;" x1="422.17" x2="430.17" y1="147.9373" y2="141.9373"/><line style="stroke:#FFB000;stroke-width:1.0;" x1="422.17" x2="430.17" y1="147.9373" y2="153.9373"/><line style="stroke:#FFB000;stroke-width:1.0;" x1="422.17" x2="430.17" y1="147.9373" y2="147.9373"/><line style="stroke:#FFB000;stroke-width:1.0;" x1="420.17" x2="420.17" y1="143.9373" y2="151.9373"/><line style="stroke:#FFB000;stroke-width:1.0;" x1="232.97" x2="224.97" y1="426.9373" y2="432.9373"/><line style="stroke:#FFB000;stroke-width:1.0;" x1="232.97" x2="224.97" y1="426.9373" y2="420.9373"/><line style="stroke:#FFB000;stroke-width:1.0;" x1="232.97" x2="224.97" y1="426.9373" y2="426.9373"/><line style="stroke:#FFB000;stroke-width:1.0;" x1="234.97" x2="234.97" y1="430.9373" y2="422.9373"/></g><!--link role to group--><g id="link_role_group"><path codeLine="50" d="M422.16,121.9373 C302.84,121.9373 126,121.9373 126,121.9373 C126,121.9373 126,180.8473 126,225.5373 " fill="none" id="role-group" style="stroke:#FFB000;stroke-width:1.0;"/><line style="stroke:#FFB000;stroke-width:1.0;" x1="422.16" x2="430.16" y1="121.9373" y2="115.9373"/><line style="stroke:#FFB000;stroke-width:1.0;" x1="422.16" x2="430.16" y1="121.9373" y2="127.9373"/><line style="stroke:#FFB000;stroke-width:1.0;" x1="422.16" x2="430.16" y1="121.9373" y2="121.9373"/><line style="stroke:#FFB000;stroke-width:1.0;" x1="420.16" x2="420.16" y1="117.9373" y2="125.9373"/><line style="stroke:#FFB000;stroke-width:1.0;" x1="126" x2="132" y1="225.5373" y2="233.5373"/><line style="stroke:#FFB000;stroke-width:1.0;" x1="126" x2="120" y1="225.5373" y2="233.5373"/><line style="stroke:#FFB000;stroke-width:1.0;" x1="126" x2="126" y1="225.5373" y2="233.5373"/><line style="stroke:#FFB000;stroke-width:1.0;" x1="130" x2="122" y1="223.5373" y2="223.5373"/></g><!--link group to user--><g id="link_group_user"><path codeLine="51" d="M126,320.0473 C126,343.1273 126,356.2273 126,379.3473 " fill="none" id="group-user" style="stroke:#FFB000;stroke-width:1.0;"/><line style="stroke:#FFB000;stroke-width:1.0;" x1="126" x2="120" y1="320.0473" y2="312.0473"/><line style="stroke:#FFB000;stroke-width:1.0;" x1="126" x2="132" y1="320.0473" y2="312.0473"/><line style="stroke:#FFB000;stroke-width:1.0;" x1="126" x2="126" y1="320.0473" y2="312.0473"/><line style="stroke:#FFB000;stroke-width:1.0;" x1="122" x2="130" y1="322.0473" y2="322.0473"/><line style="stroke:#FFB000;stroke-width:1.0;" x1="126" x2="132" y1="379.3473" y2="387.3473"/><line style="stroke:#FFB000;stroke-width:1.0;" x1="126" x2="120" y1="379.3473" y2="387.3473"/><line style="stroke:#FFB000;stroke-width:1.0;" x1="126" x2="126" y1="379.3473" y2="387.3473"/><line style="stroke:#FFB000;stroke-width:1.0;" x1="130" x2="122" y1="377.3473" y2="377.3473"/></g><!--link database to catalog--><g id="link_database_catalog"><path codeLine="85" d="M413.5,473.9873 C413.5,492.6373 413.5,498.8873 413.5,517.5573 " fill="none" id="database-catalog" style="stroke:#FFB000;stroke-width:1.0;"/><line style="stroke:#FFB000;stroke-width:1.0;" x1="409.5" x2="417.5" y1="469.9873" y2="469.9873"/><line style="stroke:#FFB000;stroke-width:1.0;" x1="409.5" x2="417.5" y1="472.9873" y2="472.9873"/><line style="stroke:#FFB000;stroke-width:1.0;" x1="413.5" x2="413.5" y1="473.9873" y2="465.9873"/><line style="stroke:#FFB000;stroke-width:1.0;" x1="413.5" x2="419.5" y1="517.5573" y2="525.5573"/><line style="stroke:#FFB000;stroke-width:1.0;" x1="413.5" x2="407.5" y1="517.5573" y2="525.5573"/><line style="stroke:#FFB000;stroke-width:1.0;" x1="413.5" x2="413.5" y1="517.5573" y2="525.5573"/><line style="stroke:#FFB000;stroke-width:1.0;" x1="417.5" x2="409.5" y1="515.5573" y2="515.5573"/></g><!--link catalog to schema--><g id="link_catalog_schema"><path codeLine="86" d="M467,612.0173 C467,630.6673 467,636.9173 467,655.5773 " fill="none" id="catalog-schema" style="stroke:#FFB000;stroke-width:1.0;"/><line style="stroke:#FFB000;stroke-width:1.0;" x1="463" x2="471" y1="608.0173" y2="608.0173"/><line style="stroke:#FFB000;stroke-width:1.0;" x1="463" x2="471" y1="611.0173" y2="611.0173"/><line style="stroke:#FFB000;stroke-width:1.0;" x1="467" x2="467" y1="612.0173" y2="604.0173"/><line style="stroke:#FFB000;stroke-width:1.0;" x1="467" x2="473" y1="655.5773" y2="663.5773"/><line style="stroke:#FFB000;stroke-width:1.0;" x1="467" x2="461" y1="655.5773" y2="663.5773"/><line style="stroke:#FFB000;stroke-width:1.0;" x1="467" x2="467" y1="655.5773" y2="663.5773"/><line style="stroke:#FFB000;stroke-width:1.0;" x1="471" x2="463" y1="653.5773" y2="653.5773"/></g><!--link database to schema--><g id="link_database_schema"><path codeLine="87" d="M315,474.0773 C315,550.3073 315,702.9373 315,702.9373 C315,702.9373 340.71,702.9373 378.11,702.9373 " fill="none" id="database-schema" style="stroke:#FFB000;stroke-width:1.0;"/><line style="stroke:#FFB000;stroke-width:1.0;" x1="311" x2="319" y1="470.0773" y2="470.0773"/><line style="stroke:#FFB000;stroke-width:1.0;" x1="311" x2="319" y1="473.0773" y2="473.0773"/><line style="stroke:#FFB000;stroke-width:1.0;" x1="315" x2="315" y1="474.0773" y2="466.0773"/><line style="stroke:#FFB000;stroke-width:1.0;" x1="378.11" x2="386.11" y1="702.9373" y2="696.9373"/><line style="stroke:#FFB000;stroke-width:1.0;" x1="378.11" x2="386.11" y1="702.9373" y2="708.9373"/><line style="stroke:#FFB000;stroke-width:1.0;" x1="378.11" x2="386.11" y1="702.9373" y2="702.9373"/><line style="stroke:#FFB000;stroke-width:1.0;" x1="376.11" x2="376.11" y1="698.9373" y2="706.9373"/></g><!--link schema to relation--><g id="link_schema_relation"><path codeLine="88" d="M511.5,750.0473 C511.5,768.6973 511.5,774.9473 511.5,793.6073 " fill="none" id="schema-relation" style="stroke:#FFB000;stroke-width:1.0;"/><line style="stroke:#FFB000;stroke-width:1.0;" x1="507.5" x2="515.5" y1="746.0473" y2="746.0473"/><line style="stroke:#FFB000;stroke-width:1.0;" x1="507.5" x2="515.5" y1="749.0473" y2="749.0473"/><line style="stroke:#FFB000;stroke-width:1.0;" x1="511.5" x2="511.5" y1="750.0473" y2="742.0473"/><line style="stroke:#FFB000;stroke-width:1.0;" x1="511.5" x2="517.5" y1="793.6073" y2="801.6073"/><line style="stroke:#FFB000;stroke-width:1.0;" x1="511.5" x2="505.5" y1="793.6073" y2="801.6073"/><line style="stroke:#FFB000;stroke-width:1.0;" x1="511.5" x2="511.5" y1="793.6073" y2="801.6073"/><line style="stroke:#FFB000;stroke-width:1.0;" x1="515.5" x2="507.5" y1="791.6073" y2="791.6073"/></g><!--link relation to column--><g id="link_relation_column"><path codeLine="89" d="M458,888.0773 C458,906.7273 458,912.9773 458,931.6373 " fill="none" id="relation-column" style="stroke:#FFB000;stroke-width:1.0;"/><line style="stroke:#FFB000;stroke-width:1.0;" x1="454" x2="462" y1="884.0773" y2="884.0773"/><line style="stroke:#FFB000;stroke-width:1.0;" x1="454" x2="462" y1="887.0773" y2="887.0773"/><line style="stroke:#FFB000;stroke-width:1.0;" x1="458" x2="458" y1="888.0773" y2="880.0773"/><line style="stroke:#FFB000;stroke-width:1.0;" x1="458" x2="464" y1="931.6373" y2="939.6373"/><line style="stroke:#FFB000;stroke-width:1.0;" x1="458" x2="452" y1="931.6373" y2="939.6373"/><line style="stroke:#FFB000;stroke-width:1.0;" x1="458" x2="458" y1="931.6373" y2="939.6373"/><line style="stroke:#FFB000;stroke-width:1.0;" x1="462" x2="454" y1="929.6373" y2="929.6373"/></g><!--link relation to predicate--><g id="link_relation_predicate"><path codeLine="90" d="M574,888.0773 C574,906.7273 574,912.9773 574,931.6373 " fill="none" id="relation-predicate" style="stroke:#FFB000;stroke-width:1.0;"/><line style="stroke:#FFB000;stroke-width:1.0;" x1="570" x2="578" y1="884.0773" y2="884.0773"/><line style="stroke:#FFB000;stroke-width:1.0;" x1="570" x2="578" y1="887.0773" y2="887.0773"/><line style="stroke:#FFB000;stroke-width:1.0;" x1="574" x2="574" y1="888.0773" y2="880.0773"/><line style="stroke:#FFB000;stroke-width:1.0;" x1="574" x2="580" y1="931.6373" y2="939.6373"/><line style="stroke:#FFB000;stroke-width:1.0;" x1="574" x2="568" y1="931.6373" y2="939.6373"/><line style="stroke:#FFB000;stroke-width:1.0;" x1="574" x2="574" y1="931.6373" y2="939.6373"/><line style="stroke:#FFB000;stroke-width:1.0;" x1="578" x2="570" y1="929.6373" y2="929.6373"/></g><!--link role to perm--><g id="link_role_perm"><path codeLine="93" d="M529,181.9273 C529,200.5773 529,206.8273 529,225.4973 " fill="none" id="role-perm" style="stroke:#FFB000;stroke-width:1.0;"/><line style="stroke:#FFB000;stroke-width:1.0;" x1="529" x2="523" y1="181.9273" y2="173.9273"/><line style="stroke:#FFB000;stroke-width:1.0;" x1="529" x2="535" y1="181.9273" y2="173.9273"/><line style="stroke:#FFB000;stroke-width:1.0;" x1="529" x2="529" y1="181.9273" y2="173.9273"/><line style="stroke:#FFB000;stroke-width:1.0;" x1="525" x2="533" y1="183.9273" y2="183.9273"/><line style="stroke:#FFB000;stroke-width:1.0;" x1="529" x2="535" y1="225.4973" y2="233.4973"/><line style="stroke:#FFB000;stroke-width:1.0;" x1="529" x2="523" y1="225.4973" y2="233.4973"/><line style="stroke:#FFB000;stroke-width:1.0;" x1="529" x2="529" y1="225.4973" y2="233.4973"/><line style="stroke:#FFB000;stroke-width:1.0;" x1="533" x2="525" y1="223.4973" y2="223.4973"/></g><!--link perm to database--><g id="link_perm_database"><path codeLine="95" d="M453.5,320.0473 C453.5,343.1273 453.5,356.2273 453.5,379.3473 " fill="none" id="perm-database" style="stroke:#FFB000;stroke-width:1.0;"/><line style="stroke:#FFB000;stroke-width:1.0;" x1="449.5" x2="457.5" y1="316.0473" y2="316.0473"/><line style="stroke:#FFB000;stroke-width:1.0;" x1="449.5" x2="457.5" y1="319.0473" y2="319.0473"/><line style="stroke:#FFB000;stroke-width:1.0;" x1="453.5" x2="453.5" y1="320.0473" y2="312.0473"/><line style="stroke:#FFB000;stroke-width:1.0;" x1="453.5" x2="459.5" y1="379.3473" y2="387.3473"/><line style="stroke:#FFB000;stroke-width:1.0;" x1="453.5" x2="447.5" y1="379.3473" y2="387.3473"/><line style="stroke:#FFB000;stroke-width:1.0;" x1="453.5" x2="453.5" y1="379.3473" y2="387.3473"/><line style="stroke:#FFB000;stroke-width:1.0;" x1="457.5" x2="449.5" y1="377.3473" y2="377.3473"/></g><!--link perm to catalog--><g id="link_perm_catalog"><path codeLine="96" d="M512,320.1673 C512,376.0573 512,461.7973 512,517.6073 " fill="none" id="perm-catalog" style="stroke:#FFB000;stroke-width:1.0;"/><line style="stroke:#FFB000;stroke-width:1.0;" x1="508" x2="516" y1="316.1673" y2="316.1673"/><line style="stroke:#FFB000;stroke-width:1.0;" x1="508" x2="516" y1="319.1673" y2="319.1673"/><line style="stroke:#FFB000;stroke-width:1.0;" x1="512" x2="512" y1="320.1673" y2="312.1673"/><line style="stroke:#FFB000;stroke-width:1.0;" x1="512" x2="518" y1="517.6073" y2="525.6073"/><line style="stroke:#FFB000;stroke-width:1.0;" x1="512" x2="506" y1="517.6073" y2="525.6073"/><line style="stroke:#FFB000;stroke-width:1.0;" x1="512" x2="512" y1="517.6073" y2="525.6073"/><line style="stroke:#FFB000;stroke-width:1.0;" x1="516" x2="508" y1="515.6073" y2="515.6073"/></g><!--link perm to schema--><g id="link_perm_schema"><path codeLine="97" d="M565.5,320.0873 C565.5,401.8873 565.5,573.6273 565.5,655.4973 " fill="none" id="perm-schema" style="stroke:#FFB000;stroke-width:1.0;"/><line style="stroke:#FFB000;stroke-width:1.0;" x1="561.5" x2="569.5" y1="316.0873" y2="316.0873"/><line style="stroke:#FFB000;stroke-width:1.0;" x1="561.5" x2="569.5" y1="319.0873" y2="319.0873"/><line style="stroke:#FFB000;stroke-width:1.0;" x1="565.5" x2="565.5" y1="320.0873" y2="312.0873"/><line style="stroke:#FFB000;stroke-width:1.0;" x1="565.5" x2="571.5" y1="655.4973" y2="663.4973"/><line style="stroke:#FFB000;stroke-width:1.0;" x1="565.5" x2="559.5" y1="655.4973" y2="663.4973"/><line style="stroke:#FFB000;stroke-width:1.0;" x1="565.5" x2="565.5" y1="655.4973" y2="663.4973"/><line style="stroke:#FFB000;stroke-width:1.0;" x1="569.5" x2="561.5" y1="653.4973" y2="653.4973"/></g><!--link perm to relation--><g id="link_perm_relation"><path codeLine="98" d="M605.5,320.2773 C605.5,424.4473 605.5,689.7773 605.5,793.6573 " fill="none" id="perm-relation" style="stroke:#FFB000;stroke-width:1.0;"/><line style="stroke:#FFB000;stroke-width:1.0;" x1="601.5" x2="609.5" y1="316.2773" y2="316.2773"/><line style="stroke:#FFB000;stroke-width:1.0;" x1="601.5" x2="609.5" y1="319.2773" y2="319.2773"/><line style="stroke:#FFB000;stroke-width:1.0;" x1="605.5" x2="605.5" y1="320.2773" y2="312.2773"/><line style="stroke:#FFB000;stroke-width:1.0;" x1="605.5" x2="611.5" y1="793.6573" y2="801.6573"/><line style="stroke:#FFB000;stroke-width:1.0;" x1="605.5" x2="599.5" y1="793.6573" y2="801.6573"/><line style="stroke:#FFB000;stroke-width:1.0;" x1="605.5" x2="605.5" y1="793.6573" y2="801.6573"/><line style="stroke:#FFB000;stroke-width:1.0;" x1="609.5" x2="601.5" y1="791.6573" y2="791.6573"/></g><!--link perm to predicate--><g id="link_perm_predicate"><path codeLine="99" d="M635.88,272.9373 C660.74,272.9373 672.5,272.9373 672.5,272.9373 C672.5,272.9373 672.5,782.7773 672.5,931.4573 " fill="none" id="perm-predicate" style="stroke:#FFB000;stroke-width:1.0;"/><line style="stroke:#FFB000;stroke-width:1.0;" x1="631.88" x2="631.88" y1="276.9373" y2="268.9373"/><line style="stroke:#FFB000;stroke-width:1.0;" x1="634.88" x2="634.88" y1="276.9373" y2="268.9373"/><line style="stroke:#FFB000;stroke-width:1.0;" x1="635.88" x2="627.88" y1="272.9373" y2="272.9373"/><line style="stroke:#FFB000;stroke-width:1.0;" x1="672.5" x2="678.5" y1="931.4573" y2="939.4573"/><line style="stroke:#FFB000;stroke-width:1.0;" x1="672.5" x2="666.5" y1="931.4573" y2="939.4573"/><line style="stroke:#FFB000;stroke-width:1.0;" x1="672.5" x2="672.5" y1="931.4573" y2="939.4573"/><line style="stroke:#FFB000;stroke-width:1.0;" x1="676.5" x2="668.5" y1="929.4573" y2="929.4573"/></g><!--SRC=[xLZVK-Cs47v6VuKE7WuwasiImWtDP9YISBc39bo609q-AjOcLd4aLvB3fKV-zwxy8x5nW0FIXqw1WR5Mgq-hRzUxQrbX0w2VrGoqP5Pf-abQOUVq0W9cXPB65o4z4MoYsPIGz- -i3rEWeo22K0jfIIhmjAsmwGWqwb0sKuBJKAjH05D3RuNrAPEJ03ZggLj3nm2Ml0zWRAbLL8k9RoaN6Zot8o7lE8o5HAkqYi8sysuc-20vtHa5E234t0WPCZI81gXcvo5GfQslSXDUm8nfAyr1TrI0nzgPQ9Zd55QmwNoZqI2F0BHQ4cwFZkZEhIyih5Uyz8Lt8y6OJBbsNw-7zWxjF81CuuGP7tXEhHF35OrRxbslDcgDVKTnNt48326EivXQkjq7nx_PBj7sdMn1ujJjAmDwcp938tnm4ri_2TwaCd9BQQir0GcQMU17HpXNgU2_A78QxTFpuui_TciVzyZMOeKNRnK3kht2boCk2aVfA0sFdkD21H1lg_5X0-SOW9uAOp3wOjGGXwyxYpDhSLUft7sFgIu8Ogf8GbXU9y_0rz6VE7ZScIVCiX4p2H4y7Mo0Z0v21MeImth9ymPGXnuc2XQ3clXn0vXPaaf28HriWW4LHDC4rOiVDn5Y6hX0EXDtXTdeDM6szFbT4aMfiqZcj5ISq5tIJiMfCr9XHY9PifbXnpoKnCjpa6BGkpU8aFWzIZMpxGl2pEAyBBKhBrfQbHUkjluL9CVzxRDAMVBJCYuR7n6AcKHPT0R5dr9jg1-wttYkgwHDfTrkkrgjBgNd3ElWDMZE98k5Nx0mQSpuDqlzJYVLTtMWZEAaong2nSF9-anFXAG7E5ZWtqXzIurSbX9QgrTgXsi0zjCrN7dH5CCmNUYnC7rDA2qlIYnPnF_7I4bS9fvIz87n7r9CN9JfETQ6uc-WzVeJAzrVd32_v7Sg-UcUHzPxBo5jf0AU0akifIbYdtqJqsZwk-3Oikp7K4v3mnWqI0_-ZUqDkChludM3iAsVqy3EjHR76fkldWe24QgmYFr8NvJkiz8uWJ6B0biA-P96NqbbGkO1N-fsLAG5bhgLRa-C8OX3sQMyoPmQ5OXyGpHWsWfFX4pQ0UDSo0cjvGqUmb-HSuq3Sk5JQFfAnnlwZAjR1p9cWSdtSTWQjS6oX4Uh8oXGXvtfpEKIvwA7qqERwVi-MsVE-YnI8dIHTulRZkd4WFBgecgI8ZAs3Wgp7Q4zRCGxFewyxErU5rObdr5wmRY83Fsb2EWQrgTusGm9yLR7rcenYYmyGCMFO0pnuA3Y3uSNWNHNYV7PQtCfvFbhNKN1j-KcNbuiAtczKq_90Ng3JQ2ecGNb0vugOMWnO_Qr6CWLHXf_7Keq2eJtOeXpzT9uIHhn9BxNHF6YaAbMZ6yeueSse_zvBrSH8mlsu_L8Z-QgzKYTZI5zsXZIwSQGpb-9XAMaWvrk0dZvp2n3tkutrbzh9BS__zdRZBBv_vzBZFBPt-uktkuktkukbdSNWm0_RwxwFJh3LETCh7seL-kD3_kxbtv4kp2YjGDQgpKRrMRrW0w6bzHDxv7TpuFUh8xVJ97sW79XajuO4VR86PinUX6X2wVGf5z3a6SdlsK2-adEX5RItGkGi-l-Ik5Zez8M5Z-hDDf2h_ia_Ph35Pvo7nHDUdNPhHoI7hxb4VOxJGgIu4U2j7gESyD_0000]--></g></svg>
